<svg xmlns="http://www.w3.org/2000/svg" xmlns:xlink="http://www.w3.org/1999/xlink" width="500" zoomAndPan="magnify" viewBox="0 0 375 374.999991" height="500" preserveAspectRatio="xMidYMid meet" version="1.0"><defs><g/><clipPath id="c20ee5fd56"><path d="M 141.3125 120.304688 L 282.542969 120.304688 L 282.542969 279 L 141.3125 279 Z M 141.3125 120.304688 " clip-rule="nonzero"/></clipPath><clipPath id="afbe7af8b5"><path d="M 211.925781 120.304688 L 282.542969 199.535156 L 211.925781 278.765625 L 141.3125 199.535156 Z M 211.925781 120.304688 " clip-rule="nonzero"/></clipPath></defs><rect x="-37.5" width="450" fill="#ffffff" y="-37.499999" height="449.999989" fill-opacity="1"/><rect x="-37.5" width="450" fill="#ffffff" y="-37.499999" height="449.999989" fill-opacity="1"/><g fill="#233329" fill-opacity="1"><g transform="translate(97.26669, 231.179303)"><g><path d="M 82.296875 -90.609375 C 79.796875 -87.984375 76.957031 -86.046875 73.78125 -84.796875 C 87.351562 -82.859375 97.671875 -78.039062 104.734375 -70.34375 C 111.804688 -62.65625 115.34375 -53.269531 115.34375 -42.1875 C 115.34375 -28.75 109.9375 -17.875 99.125 -9.5625 C 88.320312 -1.25 74.117188 2.90625 56.515625 2.90625 C 38.921875 2.90625 25.132812 -1.421875 15.15625 -10.078125 C 5.1875 -18.734375 0.203125 -30.960938 0.203125 -46.765625 C 0.203125 -47.597656 0.203125 -48.425781 0.203125 -49.25 L 2.484375 -49.671875 C 5.253906 -29.023438 13.847656 -15.65625 28.265625 -9.5625 L 28.265625 -130.515625 C 27.984375 -134.253906 26.5625 -137.335938 24 -139.765625 C 21.4375 -142.191406 18.351562 -143.40625 14.75 -143.40625 L 12.25 -143.40625 L 12.25 -145.484375 L 47.171875 -145.484375 C 60.191406 -145.484375 70.613281 -142.503906 78.4375 -136.546875 C 86.269531 -130.585938 90.1875 -122.789062 90.1875 -113.15625 C 90.1875 -103.53125 87.554688 -96.015625 82.296875 -90.609375 Z M 41.765625 -138.828125 L 41.765625 -5.8125 C 46.335938 -5.125 51.601562 -4.78125 57.5625 -4.78125 C 70.863281 -4.78125 81.21875 -8.347656 88.625 -15.484375 C 96.039062 -22.617188 99.75 -31.867188 99.75 -43.234375 C 99.75 -49.328125 98.601562 -54.726562 96.3125 -59.4375 C 94.03125 -64.144531 91.160156 -67.816406 87.703125 -70.453125 C 78.554688 -77.515625 65.671875 -81.046875 49.046875 -81.046875 C 48.898438 -81.046875 48.828125 -81.046875 48.828125 -81.046875 L 48.625 -82.921875 C 48.757812 -82.921875 48.828125 -82.921875 48.828125 -82.921875 C 55.898438 -82.921875 61.960938 -85.238281 67.015625 -89.875 C 72.078125 -94.519531 74.609375 -101.691406 74.609375 -111.390625 C 74.609375 -129.679688 64.5625 -138.828125 44.46875 -138.828125 Z M 41.765625 -138.828125 "/></g></g></g><g clip-path="url(#c20ee5fd56)"><g clip-path="url(#afbe7af8b5)"><path fill="#ffffff" d="M 141.3125 120.304688 L 282.542969 120.304688 L 282.542969 278.636719 L 141.3125 278.636719 Z M 141.3125 120.304688 " fill-opacity="1" fill-rule="nonzero"/></g></g><g fill="#abc6b2" fill-opacity="1"><g transform="translate(164.104578, 250.752845)"><g><path d="M 43.453125 -88.390625 C 50.617188 -88.390625 56.585938 -86.660156 61.359375 -83.203125 C 67.773438 -78.597656 70.984375 -71.398438 70.984375 -61.609375 C 70.984375 -54.523438 69.007812 -48.472656 65.0625 -43.453125 C 60.78125 -38.109375 54.8125 -35.4375 47.15625 -35.4375 C 43.125 -35.4375 39.460938 -36.398438 36.171875 -38.328125 C 32.878906 -40.265625 30.945312 -43.578125 30.375 -48.265625 L 31.484375 -48.640625 C 32.390625 -45.097656 34.488281 -42.628906 37.78125 -41.234375 C 40 -40.242188 41.972656 -39.75 43.703125 -39.75 C 50.453125 -39.75 55.347656 -42.382812 58.390625 -47.65625 C 60.617188 -51.519531 61.734375 -56.128906 61.734375 -61.484375 C 61.734375 -70.035156 59.34375 -76.207031 54.5625 -80 C 50.945312 -82.957031 46.335938 -84.4375 40.734375 -84.4375 C 39.421875 -84.4375 38.289062 -84.375 37.34375 -84.25 C 36.394531 -84.132812 32.257812 -83.457031 24.9375 -82.21875 L 24.9375 -9.015625 C 25.019531 -6.785156 25.84375 -4.929688 27.40625 -3.453125 C 28.96875 -1.972656 30.78125 -1.234375 32.84375 -1.234375 L 34.4375 -1.234375 L 34.4375 0 L 7.40625 0 L 7.40625 -1.234375 L 9.015625 -1.234375 C 11.066406 -1.234375 12.875 -1.972656 14.4375 -3.453125 C 16.007812 -4.929688 16.832031 -6.785156 16.90625 -9.015625 L 16.90625 -75.796875 C 16.90625 -77.941406 16.285156 -79.609375 15.046875 -80.796875 C 13.816406 -81.992188 12.21875 -82.59375 10.25 -82.59375 C 9.832031 -82.59375 9.421875 -82.550781 9.015625 -82.46875 L 7.53125 -82.34375 L 7.28125 -83.578125 C 11.5625 -83.984375 17.300781 -84.785156 24.5 -85.984375 C 31.707031 -87.179688 36.175781 -87.878906 37.90625 -88.078125 C 39.632812 -88.285156 41.484375 -88.390625 43.453125 -88.390625 Z M 43.453125 -88.390625 "/></g></g></g><path fill="#ffffff" d="M 21.015625 252.972656 L 347.0625 252.972656 L 347.0625 285.699219 L 21.015625 285.699219 L 21.015625 252.972656 " fill-opacity="1" fill-rule="nonzero"/><g fill="#0d1f22" fill-opacity="1"><g transform="translate(35.174247, 274.835748)"><g><path d="M 0.859375 -0.515625 C 1.222656 -0.523438 1.484375 -0.609375 1.640625 -0.765625 C 1.796875 -0.921875 1.882812 -1.109375 1.90625 -1.328125 C 1.925781 -1.554688 1.9375 -1.957031 1.9375 -2.53125 L 1.9375 -9.109375 C 1.9375 -9.679688 1.957031 -10.097656 2 -10.359375 L 0.859375 -10.296875 L 0.859375 -10.984375 C 2.390625 -11.003906 3.570312 -11.015625 4.40625 -11.015625 C 5.644531 -11.015625 6.59375 -10.796875 7.25 -10.359375 C 7.914062 -9.921875 8.25 -9.265625 8.25 -8.390625 C 8.25 -7.828125 8.023438 -7.304688 7.578125 -6.828125 C 7.140625 -6.359375 6.5 -6.050781 5.65625 -5.90625 L 5.65625 -5.859375 C 6.78125 -5.859375 7.640625 -5.601562 8.234375 -5.09375 C 8.835938 -4.582031 9.140625 -3.910156 9.140625 -3.078125 C 9.140625 -2.453125 8.976562 -1.90625 8.65625 -1.4375 C 8.34375 -0.96875 7.90625 -0.609375 7.34375 -0.359375 C 6.789062 -0.117188 6.15625 0 5.4375 0 L 0.859375 0 Z M 4.453125 -6.046875 C 5.273438 -6.054688 5.875 -6.28125 6.25 -6.71875 C 6.632812 -7.164062 6.828125 -7.710938 6.828125 -8.359375 C 6.828125 -9.140625 6.597656 -9.679688 6.140625 -9.984375 C 5.679688 -10.296875 5.128906 -10.453125 4.484375 -10.453125 C 4.148438 -10.453125 3.898438 -10.40625 3.734375 -10.3125 C 3.566406 -10.21875 3.453125 -10.0625 3.390625 -9.84375 C 3.335938 -9.632812 3.3125 -9.328125 3.3125 -8.921875 L 3.3125 -6.015625 Z M 4.921875 -0.59375 C 5.753906 -0.59375 6.410156 -0.796875 6.890625 -1.203125 C 7.378906 -1.617188 7.625 -2.210938 7.625 -2.984375 C 7.625 -3.867188 7.375 -4.5 6.875 -4.875 C 6.382812 -5.25 5.734375 -5.4375 4.921875 -5.4375 C 4.347656 -5.4375 3.8125 -5.421875 3.3125 -5.390625 L 3.3125 -1.84375 C 3.3125 -1.300781 3.296875 -0.894531 3.265625 -0.625 C 3.460938 -0.601562 3.835938 -0.59375 4.390625 -0.59375 Z M 4.921875 -0.59375 "/></g></g></g><g fill="#0d1f22" fill-opacity="1"><g transform="translate(48.132722, 274.835748)"><g><path d="M 0.859375 -0.515625 C 1.222656 -0.523438 1.484375 -0.609375 1.640625 -0.765625 C 1.796875 -0.921875 1.882812 -1.101562 1.90625 -1.3125 C 1.925781 -1.53125 1.9375 -1.910156 1.9375 -2.453125 L 1.9375 -9.21875 C 1.9375 -9.664062 1.957031 -10.046875 2 -10.359375 L 0.859375 -10.296875 L 0.859375 -10.984375 C 1.953125 -11.003906 2.773438 -11.015625 3.328125 -11.015625 C 3.828125 -11.015625 4.203125 -11.007812 4.453125 -11 C 5.929688 -10.976562 7.007812 -10.726562 7.6875 -10.25 C 8.375 -9.769531 8.71875 -9.082031 8.71875 -8.1875 C 8.726562 -7.46875 8.515625 -6.816406 8.078125 -6.234375 C 7.640625 -5.660156 6.875 -5.265625 5.78125 -5.046875 C 5.96875 -4.910156 6.132812 -4.75 6.28125 -4.5625 C 6.425781 -4.375 6.625 -4.082031 6.875 -3.6875 L 7.9375 -2.015625 C 8.164062 -1.640625 8.351562 -1.351562 8.5 -1.15625 C 8.65625 -0.96875 8.835938 -0.8125 9.046875 -0.6875 C 9.265625 -0.570312 9.535156 -0.515625 9.859375 -0.515625 L 9.859375 0 L 7.875 0 C 7.59375 -0.238281 7.351562 -0.484375 7.15625 -0.734375 C 6.96875 -0.992188 6.742188 -1.328125 6.484375 -1.734375 L 5.421875 -3.421875 L 5.21875 -3.75 C 5.050781 -4.03125 4.90625 -4.257812 4.78125 -4.4375 C 4.65625 -4.613281 4.519531 -4.769531 4.375 -4.90625 C 4.28125 -4.894531 4.132812 -4.890625 3.9375 -4.890625 C 3.65625 -4.890625 3.445312 -4.894531 3.3125 -4.90625 L 3.3125 -1.859375 C 3.3125 -1.304688 3.296875 -0.894531 3.265625 -0.625 L 4.390625 -0.6875 L 4.390625 0 L 0.859375 0 Z M 4 -5.484375 C 6.132812 -5.484375 7.203125 -6.328125 7.203125 -8.015625 C 7.203125 -8.804688 6.96875 -9.398438 6.5 -9.796875 C 6.039062 -10.203125 5.335938 -10.40625 4.390625 -10.40625 C 4.023438 -10.40625 3.765625 -10.332031 3.609375 -10.1875 C 3.453125 -10.039062 3.363281 -9.859375 3.34375 -9.640625 C 3.320312 -9.429688 3.3125 -9.0625 3.3125 -8.53125 L 3.3125 -5.515625 C 3.625 -5.492188 3.851562 -5.484375 4 -5.484375 Z M 4 -5.484375 "/></g></g></g><g fill="#0d1f22" fill-opacity="1"><g transform="translate(61.18531, 274.835748)"><g><path d="M -0.09375 -0.515625 C 0.164062 -0.515625 0.375 -0.570312 0.53125 -0.6875 C 0.6875 -0.8125 0.8125 -0.96875 0.90625 -1.15625 C 1.007812 -1.351562 1.128906 -1.648438 1.265625 -2.046875 L 1.421875 -2.484375 L 4.65625 -11.28125 L 5.03125 -11.28125 L 8.53125 -2.359375 C 8.644531 -2.066406 8.742188 -1.753906 8.828125 -1.421875 C 8.910156 -1.097656 8.945312 -0.832031 8.9375 -0.625 L 10.015625 -0.6875 L 10.015625 0 L 6.421875 0 L 6.421875 -0.515625 C 7.035156 -0.523438 7.34375 -0.773438 7.34375 -1.265625 C 7.34375 -1.460938 7.289062 -1.710938 7.1875 -2.015625 L 6.640625 -3.484375 L 2.5625 -3.390625 C 2.40625 -2.960938 2.222656 -2.398438 2.015625 -1.703125 C 1.898438 -1.359375 1.765625 -1 1.609375 -0.625 L 2.84375 -0.6875 L 2.84375 0 L -0.09375 0 Z M 6.421875 -4.0625 L 5.296875 -7.0625 L 4.59375 -8.984375 L 4.5625 -8.984375 L 3.90625 -7.21875 L 3.0625 -4.828125 L 2.796875 -4.0625 Z M 6.421875 -4.0625 "/></g></g></g><g fill="#0d1f22" fill-opacity="1"><g transform="translate(74.206521, 274.835748)"><g><path d="M 0.859375 -0.515625 C 1.222656 -0.523438 1.484375 -0.609375 1.640625 -0.765625 C 1.796875 -0.921875 1.882812 -1.101562 1.90625 -1.3125 C 1.925781 -1.53125 1.9375 -1.910156 1.9375 -2.453125 L 1.9375 -9.21875 C 1.9375 -9.664062 1.957031 -10.046875 2 -10.359375 L 0.859375 -10.296875 L 0.859375 -10.984375 L 4.390625 -10.984375 L 4.390625 -10.46875 C 4.023438 -10.457031 3.765625 -10.375 3.609375 -10.21875 C 3.453125 -10.0625 3.363281 -9.875 3.34375 -9.65625 C 3.320312 -9.4375 3.3125 -9.0625 3.3125 -8.53125 L 3.3125 -1.859375 C 3.3125 -1.304688 3.296875 -0.894531 3.265625 -0.625 L 4.390625 -0.6875 L 4.390625 0 L 0.859375 0 Z M 0.859375 -0.515625 "/></g></g></g><g fill="#0d1f22" fill-opacity="1"><g transform="translate(82.663486, 274.835748)"><g><path d="M 2.640625 -8.890625 L 2.625 -8.890625 L 2.671875 -2.1875 C 2.671875 -1.476562 2.660156 -0.957031 2.640625 -0.625 L 3.765625 -0.6875 L 3.765625 0 L 0.890625 0 L 0.890625 -0.515625 C 1.304688 -0.515625 1.582031 -0.632812 1.71875 -0.875 C 1.851562 -1.113281 1.921875 -1.40625 1.921875 -1.75 L 1.9375 -10.359375 L 0.890625 -10.296875 L 0.890625 -10.984375 L 2.765625 -10.984375 L 9.4375 -2.046875 L 9.453125 -2.046875 L 9.46875 -9.21875 C 9.46875 -9.664062 9.484375 -10.046875 9.515625 -10.359375 L 8.390625 -10.296875 L 8.390625 -10.984375 L 11.28125 -10.984375 L 11.28125 -10.46875 C 10.96875 -10.457031 10.734375 -10.394531 10.578125 -10.28125 C 10.429688 -10.175781 10.335938 -10.023438 10.296875 -9.828125 C 10.253906 -9.640625 10.234375 -9.390625 10.234375 -9.078125 L 10.234375 -8.53125 L 10.203125 0.25 L 9.4375 0.25 Z M 2.640625 -8.890625 "/></g></g></g><g fill="#0d1f22" fill-opacity="1"><g transform="translate(97.817812, 274.835748)"><g><path d="M 1.640625 -8.1875 L 1.4375 -8.796875 C 1.1875 -9.585938 1.035156 -10.097656 0.984375 -10.328125 L 0.109375 -10.296875 L 0.109375 -10.984375 L 3.921875 -10.984375 L 3.921875 -10.46875 C 3.492188 -10.445312 3.191406 -10.375 3.015625 -10.25 C 2.835938 -10.132812 2.75 -9.9375 2.75 -9.65625 C 2.75 -9.40625 2.800781 -9.101562 2.90625 -8.75 C 3.09375 -8.050781 3.34375 -7.269531 3.65625 -6.40625 C 3.707031 -6.25 3.769531 -6.0625 3.84375 -5.84375 C 3.914062 -5.625 4 -5.375 4.09375 -5.09375 C 4.15625 -4.875 4.234375 -4.632812 4.328125 -4.375 C 4.421875 -4.113281 4.488281 -3.925781 4.53125 -3.8125 C 4.738281 -3.25 4.894531 -2.800781 5 -2.46875 L 5.03125 -2.46875 C 5.238281 -3.175781 5.453125 -3.863281 5.671875 -4.53125 C 6.054688 -5.75 6.472656 -7.03125 6.921875 -8.375 C 7.390625 -9.789062 7.671875 -10.671875 7.765625 -11.015625 L 8.265625 -11.015625 C 8.390625 -10.585938 8.601562 -9.914062 8.90625 -9 C 9.207031 -8.082031 9.425781 -7.421875 9.5625 -7.015625 C 9.882812 -6.109375 10.101562 -5.46875 10.21875 -5.09375 C 10.300781 -4.8125 10.4375 -4.390625 10.625 -3.828125 C 10.832031 -3.222656 11 -2.707031 11.125 -2.28125 L 11.171875 -2.28125 C 11.421875 -3.09375 11.632812 -3.765625 11.8125 -4.296875 C 12.34375 -5.816406 12.773438 -7.125 13.109375 -8.21875 C 13.222656 -8.601562 13.328125 -8.925781 13.421875 -9.1875 C 13.617188 -9.726562 13.785156 -10.113281 13.921875 -10.34375 L 12.65625 -10.296875 L 12.65625 -10.984375 L 15.84375 -10.984375 L 15.84375 -10.46875 C 15.46875 -10.425781 15.179688 -10.347656 14.984375 -10.234375 C 14.796875 -10.117188 14.625 -9.910156 14.46875 -9.609375 C 14.320312 -9.304688 14.132812 -8.816406 13.90625 -8.140625 L 13.09375 -5.75 C 12.257812 -3.207031 11.585938 -1.238281 11.078125 0.15625 L 10.609375 0.15625 L 7.671875 -8.234375 L 4.90625 0.15625 L 4.453125 0.15625 Z M 1.640625 -8.1875 "/></g></g></g><g fill="#0d1f22" fill-opacity="1"><g transform="translate(116.626678, 274.835748)"><g><path d="M -0.09375 -0.515625 C 0.164062 -0.515625 0.375 -0.570312 0.53125 -0.6875 C 0.6875 -0.8125 0.8125 -0.96875 0.90625 -1.15625 C 1.007812 -1.351562 1.128906 -1.648438 1.265625 -2.046875 L 1.421875 -2.484375 L 4.65625 -11.28125 L 5.03125 -11.28125 L 8.53125 -2.359375 C 8.644531 -2.066406 8.742188 -1.753906 8.828125 -1.421875 C 8.910156 -1.097656 8.945312 -0.832031 8.9375 -0.625 L 10.015625 -0.6875 L 10.015625 0 L 6.421875 0 L 6.421875 -0.515625 C 7.035156 -0.523438 7.34375 -0.773438 7.34375 -1.265625 C 7.34375 -1.460938 7.289062 -1.710938 7.1875 -2.015625 L 6.640625 -3.484375 L 2.5625 -3.390625 C 2.40625 -2.960938 2.222656 -2.398438 2.015625 -1.703125 C 1.898438 -1.359375 1.765625 -1 1.609375 -0.625 L 2.84375 -0.6875 L 2.84375 0 L -0.09375 0 Z M 6.421875 -4.0625 L 5.296875 -7.0625 L 4.59375 -8.984375 L 4.5625 -8.984375 L 3.90625 -7.21875 L 3.0625 -4.828125 L 2.796875 -4.0625 Z M 6.421875 -4.0625 "/></g></g></g><g fill="#0d1f22" fill-opacity="1"><g transform="translate(129.64789, 274.835748)"><g><path d="M 1.484375 -8.1875 C 1.109375 -9.070312 0.882812 -9.785156 0.8125 -10.328125 L -0.0625 -10.296875 L -0.0625 -10.984375 L 3.578125 -10.984375 L 3.578125 -10.46875 L 3.5625 -10.453125 C 3.21875 -10.429688 2.960938 -10.351562 2.796875 -10.21875 C 2.640625 -10.09375 2.5625 -9.898438 2.5625 -9.640625 C 2.5625 -9.398438 2.632812 -9.101562 2.78125 -8.75 L 3.1875 -7.75 C 3.289062 -7.488281 3.445312 -7.085938 3.65625 -6.546875 C 3.875 -6.015625 4.078125 -5.53125 4.265625 -5.09375 L 4.671875 -4.140625 C 5.078125 -3.210938 5.363281 -2.523438 5.53125 -2.078125 L 5.5625 -2.078125 L 6.15625 -3.75 L 6.359375 -4.3125 L 7.734375 -8.1875 L 8.09375 -9.1875 C 8.289062 -9.757812 8.441406 -10.148438 8.546875 -10.359375 L 7.34375 -10.296875 L 7.34375 -10.984375 L 10.53125 -10.984375 L 10.53125 -10.46875 C 10.070312 -10.445312 9.71875 -10.320312 9.46875 -10.09375 C 9.21875 -9.875 8.992188 -9.484375 8.796875 -8.921875 L 5.484375 0.15625 L 5.046875 0.15625 Z M 1.484375 -8.1875 "/></g></g></g><g fill="#0d1f22" fill-opacity="1"><g transform="translate(143.092594, 274.835748)"><g><path d="M 0.859375 -0.515625 C 1.222656 -0.523438 1.484375 -0.609375 1.640625 -0.765625 C 1.796875 -0.921875 1.882812 -1.101562 1.90625 -1.3125 C 1.925781 -1.53125 1.9375 -1.910156 1.9375 -2.453125 L 1.9375 -9.21875 C 1.9375 -9.664062 1.957031 -10.046875 2 -10.359375 L 0.859375 -10.296875 L 0.859375 -10.984375 L 8.40625 -10.984375 L 8.484375 -8.234375 L 7.96875 -8.234375 C 7.96875 -9.085938 7.78125 -9.671875 7.40625 -9.984375 C 7.039062 -10.304688 6.519531 -10.457031 5.84375 -10.4375 L 4.5 -10.40625 C 4.125 -10.394531 3.851562 -10.320312 3.6875 -10.1875 C 3.519531 -10.0625 3.414062 -9.878906 3.375 -9.640625 C 3.332031 -9.398438 3.3125 -9.03125 3.3125 -8.53125 L 3.3125 -6.03125 L 6.265625 -6.015625 L 6.15625 -7.359375 L 6.84375 -7.359375 L 6.84375 -4.0625 L 6.328125 -4.0625 C 6.328125 -4.445312 6.28125 -4.738281 6.1875 -4.9375 C 6.09375 -5.144531 5.945312 -5.28125 5.75 -5.34375 C 5.550781 -5.414062 5.28125 -5.453125 4.9375 -5.453125 L 4.453125 -5.4375 L 3.3125 -5.390625 L 3.3125 -1.796875 C 3.3125 -1.253906 3.296875 -0.847656 3.265625 -0.578125 L 6.265625 -0.625 C 6.992188 -0.632812 7.550781 -0.816406 7.9375 -1.171875 C 8.320312 -1.535156 8.515625 -2.164062 8.515625 -3.0625 L 9.046875 -3.0625 L 8.953125 0 L 0.859375 0 Z M 0.859375 -0.515625 "/></g></g></g><g fill="#0d1f22" fill-opacity="1"><g transform="translate(156.051069, 274.835748)"><g/></g></g><g fill="#0d1f22" fill-opacity="1"><g transform="translate(163.378739, 274.835748)"><g><path d="M 0.859375 -0.515625 C 1.222656 -0.523438 1.484375 -0.609375 1.640625 -0.765625 C 1.796875 -0.921875 1.882812 -1.101562 1.90625 -1.3125 C 1.925781 -1.53125 1.9375 -1.910156 1.9375 -2.453125 L 1.9375 -9.21875 C 1.9375 -9.664062 1.957031 -10.046875 2 -10.359375 L 0.859375 -10.296875 L 0.859375 -10.984375 C 2.328125 -11.003906 3.492188 -11.015625 4.359375 -11.015625 C 5.921875 -11.015625 7.097656 -10.738281 7.890625 -10.1875 C 8.691406 -9.644531 9.09375 -8.847656 9.09375 -7.796875 C 9.09375 -7.191406 8.929688 -6.609375 8.609375 -6.046875 C 8.296875 -5.492188 7.75 -5.035156 6.96875 -4.671875 C 6.1875 -4.304688 5.15625 -4.125 3.875 -4.125 C 3.632812 -4.125 3.445312 -4.128906 3.3125 -4.140625 L 3.3125 -1.859375 C 3.3125 -1.304688 3.296875 -0.894531 3.265625 -0.625 L 4.703125 -0.703125 L 4.703125 0 L 0.859375 0 Z M 4.328125 -4.734375 C 4.921875 -4.734375 5.46875 -4.847656 5.96875 -5.078125 C 6.46875 -5.316406 6.859375 -5.660156 7.140625 -6.109375 C 7.429688 -6.554688 7.578125 -7.078125 7.578125 -7.671875 C 7.578125 -8.609375 7.285156 -9.296875 6.703125 -9.734375 C 6.128906 -10.179688 5.335938 -10.40625 4.328125 -10.40625 C 3.972656 -10.40625 3.722656 -10.332031 3.578125 -10.1875 C 3.441406 -10.039062 3.363281 -9.863281 3.34375 -9.65625 C 3.320312 -9.445312 3.3125 -9.070312 3.3125 -8.53125 L 3.3125 -4.78125 C 3.570312 -4.75 3.910156 -4.734375 4.328125 -4.734375 Z M 4.328125 -4.734375 "/></g></g></g><g fill="#0d1f22" fill-opacity="1"><g transform="translate(176.086251, 274.835748)"><g><path d="M 0.859375 -0.515625 C 1.222656 -0.523438 1.484375 -0.609375 1.640625 -0.765625 C 1.796875 -0.921875 1.882812 -1.101562 1.90625 -1.3125 C 1.925781 -1.53125 1.9375 -1.910156 1.9375 -2.453125 L 1.9375 -9.21875 C 1.9375 -9.664062 1.957031 -10.046875 2 -10.359375 L 0.859375 -10.296875 L 0.859375 -10.984375 C 1.953125 -11.003906 2.773438 -11.015625 3.328125 -11.015625 C 3.828125 -11.015625 4.203125 -11.007812 4.453125 -11 C 5.929688 -10.976562 7.007812 -10.726562 7.6875 -10.25 C 8.375 -9.769531 8.71875 -9.082031 8.71875 -8.1875 C 8.726562 -7.46875 8.515625 -6.816406 8.078125 -6.234375 C 7.640625 -5.660156 6.875 -5.265625 5.78125 -5.046875 C 5.96875 -4.910156 6.132812 -4.75 6.28125 -4.5625 C 6.425781 -4.375 6.625 -4.082031 6.875 -3.6875 L 7.9375 -2.015625 C 8.164062 -1.640625 8.351562 -1.351562 8.5 -1.15625 C 8.65625 -0.96875 8.835938 -0.8125 9.046875 -0.6875 C 9.265625 -0.570312 9.535156 -0.515625 9.859375 -0.515625 L 9.859375 0 L 7.875 0 C 7.59375 -0.238281 7.351562 -0.484375 7.15625 -0.734375 C 6.96875 -0.992188 6.742188 -1.328125 6.484375 -1.734375 L 5.421875 -3.421875 L 5.21875 -3.75 C 5.050781 -4.03125 4.90625 -4.257812 4.78125 -4.4375 C 4.65625 -4.613281 4.519531 -4.769531 4.375 -4.90625 C 4.28125 -4.894531 4.132812 -4.890625 3.9375 -4.890625 C 3.65625 -4.890625 3.445312 -4.894531 3.3125 -4.90625 L 3.3125 -1.859375 C 3.3125 -1.304688 3.296875 -0.894531 3.265625 -0.625 L 4.390625 -0.6875 L 4.390625 0 L 0.859375 0 Z M 4 -5.484375 C 6.132812 -5.484375 7.203125 -6.328125 7.203125 -8.015625 C 7.203125 -8.804688 6.96875 -9.398438 6.5 -9.796875 C 6.039062 -10.203125 5.335938 -10.40625 4.390625 -10.40625 C 4.023438 -10.40625 3.765625 -10.332031 3.609375 -10.1875 C 3.453125 -10.039062 3.363281 -9.859375 3.34375 -9.640625 C 3.320312 -9.429688 3.3125 -9.0625 3.3125 -8.53125 L 3.3125 -5.515625 C 3.625 -5.492188 3.851562 -5.484375 4 -5.484375 Z M 4 -5.484375 "/></g></g></g><g fill="#0d1f22" fill-opacity="1"><g transform="translate(189.138839, 274.835748)"><g><path d="M 6.3125 0.25 C 5.050781 0.25 4 -0.0234375 3.15625 -0.578125 C 2.320312 -1.128906 1.707031 -1.84375 1.3125 -2.71875 C 0.914062 -3.59375 0.71875 -4.515625 0.71875 -5.484375 C 0.71875 -6.421875 0.921875 -7.328125 1.328125 -8.203125 C 1.742188 -9.078125 2.363281 -9.800781 3.1875 -10.375 C 4.007812 -10.945312 5.007812 -11.234375 6.1875 -11.234375 C 7.382812 -11.234375 8.40625 -10.945312 9.25 -10.375 C 10.09375 -9.800781 10.722656 -9.078125 11.140625 -8.203125 C 11.554688 -7.328125 11.765625 -6.421875 11.765625 -5.484375 C 11.765625 -4.566406 11.554688 -3.664062 11.140625 -2.78125 C 10.734375 -1.894531 10.117188 -1.164062 9.296875 -0.59375 C 8.472656 -0.03125 7.476562 0.25 6.3125 0.25 Z M 6.34375 -0.390625 C 7.15625 -0.390625 7.847656 -0.617188 8.421875 -1.078125 C 9.003906 -1.546875 9.445312 -2.144531 9.75 -2.875 C 10.050781 -3.613281 10.203125 -4.382812 10.203125 -5.1875 C 10.203125 -6.082031 10.035156 -6.941406 9.703125 -7.765625 C 9.378906 -8.597656 8.910156 -9.28125 8.296875 -9.8125 C 7.679688 -10.34375 6.960938 -10.609375 6.140625 -10.609375 C 5.316406 -10.609375 4.613281 -10.375 4.03125 -9.90625 C 3.445312 -9.4375 3.003906 -8.832031 2.703125 -8.09375 C 2.410156 -7.351562 2.265625 -6.578125 2.265625 -5.765625 C 2.265625 -4.941406 2.414062 -4.113281 2.71875 -3.28125 C 3.019531 -2.457031 3.476562 -1.769531 4.09375 -1.21875 C 4.707031 -0.664062 5.457031 -0.390625 6.34375 -0.390625 Z M 6.34375 -0.390625 "/></g></g></g><g fill="#0d1f22" fill-opacity="1"><g transform="translate(204.795075, 274.835748)"><g><path d="M 1.625 0.25 C 1.164062 0.25 0.773438 0.148438 0.453125 -0.046875 C 0.128906 -0.253906 -0.03125 -0.523438 -0.03125 -0.859375 C -0.03125 -1.085938 0.03125 -1.28125 0.15625 -1.4375 C 0.28125 -1.59375 0.460938 -1.671875 0.703125 -1.671875 C 0.910156 -1.671875 1.066406 -1.597656 1.171875 -1.453125 C 1.273438 -1.316406 1.328125 -1.160156 1.328125 -0.984375 C 1.328125 -0.835938 1.304688 -0.722656 1.265625 -0.640625 C 1.316406 -0.546875 1.40625 -0.476562 1.53125 -0.4375 C 1.664062 -0.394531 1.78125 -0.378906 1.875 -0.390625 C 2.207031 -0.398438 2.445312 -0.539062 2.59375 -0.8125 C 2.738281 -1.09375 2.8125 -1.550781 2.8125 -2.1875 L 2.8125 -10.359375 L 1.203125 -10.296875 L 1.203125 -10.984375 L 5.375 -10.984375 L 5.375 -10.46875 C 4.894531 -10.46875 4.570312 -10.332031 4.40625 -10.0625 C 4.25 -9.789062 4.171875 -9.40625 4.171875 -8.90625 L 4.171875 -3.828125 C 4.171875 -2.835938 4.082031 -2.046875 3.90625 -1.453125 C 3.738281 -0.859375 3.46875 -0.425781 3.09375 -0.15625 C 2.726562 0.113281 2.238281 0.25 1.625 0.25 Z M 1.625 0.25 "/></g></g></g><g fill="#0d1f22" fill-opacity="1"><g transform="translate(213.848062, 274.835748)"><g><path d="M 0.859375 -0.515625 C 1.222656 -0.523438 1.484375 -0.609375 1.640625 -0.765625 C 1.796875 -0.921875 1.882812 -1.101562 1.90625 -1.3125 C 1.925781 -1.53125 1.9375 -1.910156 1.9375 -2.453125 L 1.9375 -9.21875 C 1.9375 -9.664062 1.957031 -10.046875 2 -10.359375 L 0.859375 -10.296875 L 0.859375 -10.984375 L 8.40625 -10.984375 L 8.484375 -8.234375 L 7.96875 -8.234375 C 7.96875 -9.085938 7.78125 -9.671875 7.40625 -9.984375 C 7.039062 -10.304688 6.519531 -10.457031 5.84375 -10.4375 L 4.5 -10.40625 C 4.125 -10.394531 3.851562 -10.320312 3.6875 -10.1875 C 3.519531 -10.0625 3.414062 -9.878906 3.375 -9.640625 C 3.332031 -9.398438 3.3125 -9.03125 3.3125 -8.53125 L 3.3125 -6.03125 L 6.265625 -6.015625 L 6.15625 -7.359375 L 6.84375 -7.359375 L 6.84375 -4.0625 L 6.328125 -4.0625 C 6.328125 -4.445312 6.28125 -4.738281 6.1875 -4.9375 C 6.09375 -5.144531 5.945312 -5.28125 5.75 -5.34375 C 5.550781 -5.414062 5.28125 -5.453125 4.9375 -5.453125 L 4.453125 -5.4375 L 3.3125 -5.390625 L 3.3125 -1.796875 C 3.3125 -1.253906 3.296875 -0.847656 3.265625 -0.578125 L 6.265625 -0.625 C 6.992188 -0.632812 7.550781 -0.816406 7.9375 -1.171875 C 8.320312 -1.535156 8.515625 -2.164062 8.515625 -3.0625 L 9.046875 -3.0625 L 8.953125 0 L 0.859375 0 Z M 0.859375 -0.515625 "/></g></g></g><g fill="#0d1f22" fill-opacity="1"><g transform="translate(226.806537, 274.835748)"><g><path d="M 6.0625 0.25 C 5.03125 0.25 4.109375 0.00390625 3.296875 -0.484375 C 2.492188 -0.972656 1.863281 -1.640625 1.40625 -2.484375 C 0.945312 -3.335938 0.71875 -4.28125 0.71875 -5.3125 C 0.71875 -6.34375 0.921875 -7.304688 1.328125 -8.203125 C 1.742188 -9.097656 2.363281 -9.828125 3.1875 -10.390625 C 4.007812 -10.953125 5.003906 -11.234375 6.171875 -11.234375 C 7.316406 -11.234375 8.367188 -10.914062 9.328125 -10.28125 L 9.25 -11.125 L 10.109375 -11.125 L 10.109375 -7.484375 L 9.53125 -7.484375 C 9.425781 -8.453125 9.082031 -9.210938 8.5 -9.765625 C 7.925781 -10.316406 7.1875 -10.59375 6.28125 -10.59375 C 5.53125 -10.59375 4.847656 -10.382812 4.234375 -9.96875 C 3.628906 -9.550781 3.148438 -8.960938 2.796875 -8.203125 C 2.441406 -7.441406 2.265625 -6.554688 2.265625 -5.546875 C 2.265625 -4.585938 2.453125 -3.726562 2.828125 -2.96875 C 3.203125 -2.207031 3.707031 -1.613281 4.34375 -1.1875 C 4.976562 -0.769531 5.6875 -0.5625 6.46875 -0.5625 C 7.164062 -0.5625 7.835938 -0.71875 8.484375 -1.03125 C 9.128906 -1.34375 9.664062 -1.789062 10.09375 -2.375 L 10.5 -2.046875 C 9.882812 -1.191406 9.1875 -0.59375 8.40625 -0.25 C 7.625 0.0820312 6.84375 0.25 6.0625 0.25 Z M 6.0625 0.25 "/></g></g></g><g fill="#0d1f22" fill-opacity="1"><g transform="translate(240.972738, 274.835748)"><g><path d="M 3.265625 -0.515625 C 3.710938 -0.535156 4 -0.660156 4.125 -0.890625 C 4.257812 -1.117188 4.328125 -1.472656 4.328125 -1.953125 L 4.328125 -2.453125 L 4.34375 -10.40625 L 2.734375 -10.390625 C 2.078125 -10.390625 1.609375 -10.171875 1.328125 -9.734375 C 1.054688 -9.296875 0.921875 -8.609375 0.921875 -7.671875 L 0.34375 -7.671875 L 0.4375 -10.984375 L 9.578125 -10.984375 L 9.671875 -7.671875 L 9.078125 -7.671875 C 9.066406 -8.328125 9 -8.851562 8.875 -9.25 C 8.757812 -9.644531 8.554688 -9.9375 8.265625 -10.125 C 7.984375 -10.320312 7.578125 -10.421875 7.046875 -10.421875 L 5.703125 -10.421875 L 5.6875 -1.859375 C 5.6875 -1.304688 5.671875 -0.894531 5.640625 -0.625 L 6.953125 -0.6875 L 6.953125 0 L 3.265625 0 Z M 3.265625 -0.515625 "/></g></g></g><g fill="#0d1f22" fill-opacity="1"><g transform="translate(254.213536, 274.835748)"><g><path d="M 4.53125 0.25 C 4.039062 0.25 3.546875 0.179688 3.046875 0.046875 C 2.554688 -0.0859375 2.117188 -0.285156 1.734375 -0.546875 L 1.8125 0.125 L 1 0.125 L 0.90625 -3.21875 L 1.515625 -3.21875 C 1.566406 -2.3125 1.875 -1.613281 2.4375 -1.125 C 3.007812 -0.644531 3.726562 -0.40625 4.59375 -0.40625 C 5.226562 -0.40625 5.765625 -0.578125 6.203125 -0.921875 C 6.640625 -1.273438 6.859375 -1.757812 6.859375 -2.375 C 6.859375 -2.820312 6.734375 -3.203125 6.484375 -3.515625 C 6.242188 -3.835938 5.941406 -4.101562 5.578125 -4.3125 C 5.210938 -4.53125 4.722656 -4.78125 4.109375 -5.0625 C 3.410156 -5.394531 2.851562 -5.6875 2.4375 -5.9375 C 2.019531 -6.195312 1.664062 -6.53125 1.375 -6.9375 C 1.082031 -7.351562 0.9375 -7.863281 0.9375 -8.46875 C 0.9375 -8.882812 1.03125 -9.300781 1.21875 -9.71875 C 1.414062 -10.144531 1.753906 -10.503906 2.234375 -10.796875 C 2.710938 -11.085938 3.34375 -11.234375 4.125 -11.234375 C 4.59375 -11.234375 5.066406 -11.171875 5.546875 -11.046875 C 6.023438 -10.929688 6.460938 -10.726562 6.859375 -10.4375 L 6.796875 -11.109375 L 7.59375 -11.109375 L 7.59375 -7.65625 L 7.03125 -7.65625 C 6.976562 -8.476562 6.710938 -9.175781 6.234375 -9.75 C 5.753906 -10.320312 5.085938 -10.609375 4.234375 -10.609375 C 3.609375 -10.609375 3.117188 -10.429688 2.765625 -10.078125 C 2.410156 -9.722656 2.234375 -9.285156 2.234375 -8.765625 C 2.234375 -8.347656 2.351562 -7.988281 2.59375 -7.6875 C 2.832031 -7.382812 3.125 -7.132812 3.46875 -6.9375 C 3.8125 -6.738281 4.296875 -6.492188 4.921875 -6.203125 C 5.640625 -5.867188 6.210938 -5.570312 6.640625 -5.3125 C 7.078125 -5.050781 7.445312 -4.707031 7.75 -4.28125 C 8.050781 -3.863281 8.203125 -3.347656 8.203125 -2.734375 C 8.203125 -2.140625 8.054688 -1.617188 7.765625 -1.171875 C 7.484375 -0.722656 7.0625 -0.375 6.5 -0.125 C 5.945312 0.125 5.289062 0.25 4.53125 0.25 Z M 4.53125 0.25 "/></g></g></g><g fill="#0d1f22" fill-opacity="1"><g transform="translate(266.309345, 274.835748)"><g/></g></g><g fill="#0d1f22" fill-opacity="1"><g transform="translate(273.637029, 274.835748)"><g><path d="M 1.15625 -0.515625 C 1.664062 -0.535156 2.019531 -0.691406 2.21875 -0.984375 C 2.425781 -1.273438 2.53125 -1.71875 2.53125 -2.3125 L 2.515625 -9.703125 L 2.484375 -9.703125 L 0.59375 -8.5 L 0.28125 -8.953125 L 3.34375 -11.234375 L 3.875 -11.234375 L 3.890625 -1.703125 C 3.890625 -1.179688 3.875 -0.820312 3.84375 -0.625 L 5.15625 -0.6875 L 5.15625 0 L 1.15625 0 Z M 1.15625 -0.515625 "/></g></g></g><g fill="#0d1f22" fill-opacity="1"><g transform="translate(282.548847, 274.835748)"><g><path d="M 4.03125 0.25 C 3.394531 0.25 2.859375 0.15625 2.421875 -0.03125 C 1.992188 -0.226562 1.675781 -0.472656 1.46875 -0.765625 C 1.269531 -1.066406 1.171875 -1.367188 1.171875 -1.671875 C 1.171875 -1.910156 1.226562 -2.109375 1.34375 -2.265625 C 1.46875 -2.421875 1.640625 -2.503906 1.859375 -2.515625 C 2.097656 -2.523438 2.273438 -2.457031 2.390625 -2.3125 C 2.515625 -2.164062 2.578125 -2.003906 2.578125 -1.828125 C 2.578125 -1.609375 2.503906 -1.394531 2.359375 -1.1875 C 2.429688 -0.9375 2.597656 -0.734375 2.859375 -0.578125 C 3.117188 -0.421875 3.484375 -0.34375 3.953125 -0.34375 C 4.992188 -0.34375 5.707031 -0.867188 6.09375 -1.921875 C 6.488281 -2.972656 6.679688 -4.140625 6.671875 -5.421875 C 6.390625 -5.035156 6.019531 -4.71875 5.5625 -4.46875 C 5.113281 -4.226562 4.601562 -4.109375 4.03125 -4.109375 C 3.25 -4.109375 2.609375 -4.28125 2.109375 -4.625 C 1.617188 -4.96875 1.269531 -5.40625 1.0625 -5.9375 C 0.851562 -6.46875 0.75 -7.023438 0.75 -7.609375 C 0.75 -8.285156 0.898438 -8.898438 1.203125 -9.453125 C 1.503906 -10.003906 1.9375 -10.4375 2.5 -10.75 C 3.070312 -11.070312 3.722656 -11.234375 4.453125 -11.234375 C 5.828125 -11.234375 6.785156 -10.738281 7.328125 -9.75 C 7.867188 -8.769531 8.140625 -7.394531 8.140625 -5.625 C 8.140625 -4.070312 7.847656 -2.707031 7.265625 -1.53125 C 6.691406 -0.351562 5.613281 0.238281 4.03125 0.25 Z M 4.359375 -4.8125 C 4.835938 -4.8125 5.300781 -4.984375 5.75 -5.328125 C 6.195312 -5.671875 6.5 -6.078125 6.65625 -6.546875 C 6.59375 -7.710938 6.382812 -8.6875 6.03125 -9.46875 C 5.675781 -10.25 5.113281 -10.640625 4.34375 -10.640625 C 3.707031 -10.640625 3.207031 -10.375 2.84375 -9.84375 C 2.488281 -9.320312 2.3125 -8.691406 2.3125 -7.953125 C 2.3125 -7.148438 2.457031 -6.425781 2.75 -5.78125 C 3.050781 -5.132812 3.585938 -4.8125 4.359375 -4.8125 Z M 4.359375 -4.8125 "/></g></g></g><g fill="#0d1f22" fill-opacity="1"><g transform="translate(294.817215, 274.835748)"><g><path d="M 4.875 0.25 C 3.425781 0.25 2.394531 -0.300781 1.78125 -1.40625 C 1.175781 -2.519531 0.875 -3.863281 0.875 -5.4375 C 0.875 -6.394531 1.015625 -7.3125 1.296875 -8.1875 C 1.585938 -9.070312 2.035156 -9.800781 2.640625 -10.375 C 3.253906 -10.945312 4.019531 -11.234375 4.9375 -11.234375 C 5.894531 -11.234375 6.664062 -10.953125 7.25 -10.390625 C 7.832031 -9.828125 8.25 -9.117188 8.5 -8.265625 C 8.75 -7.410156 8.875 -6.492188 8.875 -5.515625 C 8.875 -4.578125 8.734375 -3.664062 8.453125 -2.78125 C 8.179688 -1.90625 7.742188 -1.179688 7.140625 -0.609375 C 6.546875 -0.0351562 5.789062 0.25 4.875 0.25 Z M 4.96875 -0.359375 C 5.789062 -0.359375 6.378906 -0.828125 6.734375 -1.765625 C 7.085938 -2.703125 7.265625 -3.84375 7.265625 -5.1875 C 7.265625 -6.695312 7.082031 -7.984375 6.71875 -9.046875 C 6.363281 -10.109375 5.757812 -10.640625 4.90625 -10.640625 C 4.070312 -10.640625 3.460938 -10.160156 3.078125 -9.203125 C 2.691406 -8.253906 2.5 -7.109375 2.5 -5.765625 C 2.5 -4.367188 2.679688 -3.117188 3.046875 -2.015625 C 3.421875 -0.910156 4.0625 -0.359375 4.96875 -0.359375 Z M 4.96875 -0.359375 "/></g></g></g><g fill="#0d1f22" fill-opacity="1"><g transform="translate(307.760009, 274.835748)"><g><path d="M 6.0625 0.25 C 5.03125 0.25 4.109375 0.00390625 3.296875 -0.484375 C 2.492188 -0.972656 1.863281 -1.640625 1.40625 -2.484375 C 0.945312 -3.335938 0.71875 -4.28125 0.71875 -5.3125 C 0.71875 -6.34375 0.921875 -7.304688 1.328125 -8.203125 C 1.742188 -9.097656 2.363281 -9.828125 3.1875 -10.390625 C 4.007812 -10.953125 5.003906 -11.234375 6.171875 -11.234375 C 7.316406 -11.234375 8.367188 -10.914062 9.328125 -10.28125 L 9.25 -11.125 L 10.109375 -11.125 L 10.109375 -7.484375 L 9.53125 -7.484375 C 9.425781 -8.453125 9.082031 -9.210938 8.5 -9.765625 C 7.925781 -10.316406 7.1875 -10.59375 6.28125 -10.59375 C 5.53125 -10.59375 4.847656 -10.382812 4.234375 -9.96875 C 3.628906 -9.550781 3.148438 -8.960938 2.796875 -8.203125 C 2.441406 -7.441406 2.265625 -6.554688 2.265625 -5.546875 C 2.265625 -4.585938 2.453125 -3.726562 2.828125 -2.96875 C 3.203125 -2.207031 3.707031 -1.613281 4.34375 -1.1875 C 4.976562 -0.769531 5.6875 -0.5625 6.46875 -0.5625 C 7.164062 -0.5625 7.835938 -0.71875 8.484375 -1.03125 C 9.128906 -1.34375 9.664062 -1.789062 10.09375 -2.375 L 10.5 -2.046875 C 9.882812 -1.191406 9.1875 -0.59375 8.40625 -0.25 C 7.625 0.0820312 6.84375 0.25 6.0625 0.25 Z M 6.0625 0.25 "/></g></g></g><g fill="#0d1f22" fill-opacity="1"><g transform="translate(321.92621, 274.835748)"><g><path d="M 6.0625 0.25 C 5.03125 0.25 4.109375 0.00390625 3.296875 -0.484375 C 2.492188 -0.972656 1.863281 -1.640625 1.40625 -2.484375 C 0.945312 -3.335938 0.71875 -4.28125 0.71875 -5.3125 C 0.71875 -6.34375 0.921875 -7.304688 1.328125 -8.203125 C 1.742188 -9.097656 2.363281 -9.828125 3.1875 -10.390625 C 4.007812 -10.953125 5.003906 -11.234375 6.171875 -11.234375 C 7.316406 -11.234375 8.367188 -10.914062 9.328125 -10.28125 L 9.25 -11.125 L 10.109375 -11.125 L 10.109375 -7.484375 L 9.53125 -7.484375 C 9.425781 -8.453125 9.082031 -9.210938 8.5 -9.765625 C 7.925781 -10.316406 7.1875 -10.59375 6.28125 -10.59375 C 5.53125 -10.59375 4.847656 -10.382812 4.234375 -9.96875 C 3.628906 -9.550781 3.148438 -8.960938 2.796875 -8.203125 C 2.441406 -7.441406 2.265625 -6.554688 2.265625 -5.546875 C 2.265625 -4.585938 2.453125 -3.726562 2.828125 -2.96875 C 3.203125 -2.207031 3.707031 -1.613281 4.34375 -1.1875 C 4.976562 -0.769531 5.6875 -0.5625 6.46875 -0.5625 C 7.164062 -0.5625 7.835938 -0.71875 8.484375 -1.03125 C 9.128906 -1.34375 9.664062 -1.789062 10.09375 -2.375 L 10.5 -2.046875 C 9.882812 -1.191406 9.1875 -0.59375 8.40625 -0.25 C 7.625 0.0820312 6.84375 0.25 6.0625 0.25 Z M 6.0625 0.25 "/></g></g></g></svg>